<svg id="Layer_3" height="512" viewBox="0 0 64 64" width="512" xmlns="http://www.w3.org/2000/svg" data-name="Layer 3"><path d="m24 32h20a8 8 0 0 0 2.57-15.57 7.986 7.986 0 0 0 -10.037-5.038 8 8 0 0 0 -14.533 4.608c0 .087.01.172.013.259a8 8 0 0 0 1.987 15.741z" fill="#c0dafc"/><path d="m51.748 26a8 8 0 0 0 -5.178-9.57 7.986 7.986 0 0 0 -10.037-5.038 8.026 8.026 0 0 0 -4.064-3 7.98 7.98 0 0 1 9-3 8 8 0 0 1 14.531 4.608c0 .087-.01.172-.013.259a8 8 0 0 1 -1.987 15.741z" fill="#78a0d4"/><path d="m36 43v19h-34v-26h12l7 7z" fill="#f4a93c"/><path d="m30 57v-14h-9l-7-7h-12v23h26a2 2 0 0 0 2-2z" fill="#f6b940"/><path d="m34 43v-4h-17l4 4z" fill="#e2e7f6"/><path d="m14 17-6 6-6-6h3v-5a7 7 0 0 1 7-7h8v6h-7a2 2 0 0 0 -2 2v4z" fill="#b52f28"/><path d="m50 47 6-6 6 6h-3v5a7 7 0 0 1 -7 7h-8v-6h7a2 2 0 0 0 2-2v-4z" fill="#b52f28"/><path d="m8 47h22v4h-22z" fill="#f9d266"/><path d="m28 48v-1h-20v2h19a1 1 0 0 0 1-1z" fill="#fce797"/><circle cx="34" cy="27" fill="#5e87ca" r="8"/><path d="m30 26 4-4 4 4h-2v5h-4v-5z" fill="#f2f2f2"/><path d="m36 42h-1v-3a1 1 0 0 0 -1-1h-16.586l-2.707-2.707a1 1 0 0 0 -.707-.293h-12a1 1 0 0 0 -1 1v26a1 1 0 0 0 1 1h34a1 1 0 0 0 1-1v-19a1 1 0 0 0 -1-1zm-3-2v2h-11.586l-2-2zm2 21h-32v-24h10.586l6.707 6.707a1 1 0 0 0 .707.293h14z"/><path d="m44 33a9.008 9.008 0 0 0 8.475-6h1.525a9 9 0 0 0 2.987-17.482 8.994 8.994 0 0 0 -15.9-5.271 8.943 8.943 0 0 0 -8.987 3.009 8.969 8.969 0 0 0 -11.085 8.262 9 9 0 0 0 2.985 17.482h3.311a8.957 8.957 0 0 0 13.378 0zm-2.841-26.657a1 1 0 0 0 1.125-.374 6.993 6.993 0 0 1 12.716 4.113l-.009.143a1 1 0 0 0 .752 1 7 7 0 0 1 -1.743 13.775h-1.059a8.954 8.954 0 0 0 -5.592-9.349 8.985 8.985 0 0 0 -10.436-5.4 9.02 9.02 0 0 0 -2.8-2.232 7.086 7.086 0 0 1 7.046-1.676zm-17.159 24.657a7 7 0 0 1 -1.739-13.772 1 1 0 0 0 .752-1l-.013-.228a7 7 0 0 1 12.716-4.031 1 1 0 0 0 1.125.374 6.988 6.988 0 0 1 8.783 4.408 1 1 0 0 0 .625.625 7 7 0 0 1 -2.249 13.624h-1.95a9 9 0 1 0 -16.1 0zm10 3a7 7 0 1 1 7-7 7.008 7.008 0 0 1 -7 7z"/><path d="m7.293 23.707a1 1 0 0 0 1.414 0l6-6a1 1 0 0 0 -.707-1.707h-2v-3a1 1 0 0 1 1-1h7a1 1 0 0 0 1-1v-6a1 1 0 0 0 -1-1h-8a8.009 8.009 0 0 0 -8 8v4h-2a1 1 0 0 0 -.707 1.707zm-2.293-5.707a1 1 0 0 0 1-1v-5a6.006 6.006 0 0 1 6-6h7v4h-6a3 3 0 0 0 -3 3v4a1 1 0 0 0 1 1h.586l-3.586 3.586-3.586-3.586z"/><path d="m56.707 40.293a1 1 0 0 0 -1.414 0l-6 6a1 1 0 0 0 .707 1.707h2v3a1 1 0 0 1 -1 1h-7a1 1 0 0 0 -1 1v6a1 1 0 0 0 1 1h8a8.009 8.009 0 0 0 8-8v-4h2a1 1 0 0 0 .707-1.707zm2.293 5.707a1 1 0 0 0 -1 1v5a6.006 6.006 0 0 1 -6 6h-7v-4h6a3 3 0 0 0 3-3v-4a1 1 0 0 0 -1-1h-.586l3.586-3.586 3.586 3.586z"/><path d="m7 47v4a1 1 0 0 0 1 1h22a1 1 0 0 0 1-1v-4a1 1 0 0 0 -1-1h-22a1 1 0 0 0 -1 1zm2 1h20v2h-20z"/><path d="m38.707 25.293-4-4a1 1 0 0 0 -1.414 0l-4 4a1 1 0 0 0 .707 1.707h1v4a1 1 0 0 0 1 1h4a1 1 0 0 0 1-1v-4h1a1 1 0 0 0 .707-1.707zm-3.707.707v4h-2v-4a1 1 0 0 0 -.649-.937l1.649-1.649 1.649 1.649a1 1 0 0 0 -.649.937z"/></svg>