<svg width="267" height="206" viewBox="0 0 267 206" fill="none" xmlns="http://www.w3.org/2000/svg">
<g clip-path="url(#clip0)">
<path d="M203.756 187.515C211.583 187.515 217.929 174.568 217.929 158.598C217.929 142.627 211.583 129.68 203.756 129.68C195.929 129.68 189.584 142.627 189.584 158.598C189.584 174.568 195.929 187.515 203.756 187.515Z" fill="#3F3D56"/>
<path d="M202.447 205.931C208.124 171.875 202.505 137.942 202.447 137.603L201.343 137.79C201.4 138.127 206.987 171.882 201.343 205.747L202.447 205.931Z" fill="#4CAF5A"/>
<path d="M191.279 152.379L190.75 153.367L203.566 160.222L204.094 159.234L191.279 152.379Z" fill="#4CAF5A"/>
<path d="M217.092 155.813L204.278 162.672L204.806 163.66L217.62 156.801L217.092 155.813Z" fill="#4CAF5A"/>
<path d="M237.809 169.391C253.118 169.391 265.528 144.068 265.528 112.831C265.528 81.5944 253.118 56.2718 237.809 56.2718C222.499 56.2718 210.089 81.5944 210.089 112.831C210.089 144.068 222.499 169.391 237.809 169.391Z" fill="#E6E6E6"/>
<path d="M234.721 205.322C245.808 138.8 234.833 72.5198 234.721 71.8581L233.616 72.0451C233.728 72.7052 244.671 138.807 233.616 205.139L234.721 205.322Z" fill="#4CAF5A"/>
<path d="M213.151 101.141L212.623 102.129L237.69 115.536L238.218 114.549L213.151 101.141Z" fill="#4CAF5A"/>
<path d="M264.144 107.858L239.081 121.272L239.61 122.26L264.673 108.845L264.144 107.858Z" fill="#4CAF5A"/>
<path d="M173.429 205.5H25.9863C25.444 205.499 24.9242 205.284 24.5407 204.9C24.1573 204.517 23.9416 203.997 23.9409 203.455V110.288C23.9415 109.746 24.1572 109.226 24.5407 108.842C24.9241 108.459 25.444 108.243 25.9863 108.243H173.429C173.972 108.243 174.492 108.459 174.875 108.842C175.259 109.226 175.474 109.746 175.475 110.288V203.455C175.474 203.997 175.258 204.517 174.875 204.9C174.492 205.284 173.972 205.499 173.429 205.5Z" fill="#2F2E41"/>
<path d="M39.5457 119.532C39.3133 119.533 39.0904 119.625 38.9261 119.79C38.7618 119.954 38.6693 120.177 38.6691 120.409V193.334C38.6693 193.566 38.7618 193.789 38.9261 193.953C39.0904 194.118 39.3133 194.21 39.5457 194.21H159.87C160.103 194.21 160.325 194.118 160.49 193.953C160.654 193.789 160.746 193.566 160.747 193.334V120.409C160.746 120.177 160.654 119.954 160.49 119.79C160.325 119.625 160.103 119.533 159.87 119.532H39.5457Z" fill="white"/>
<path d="M161.039 138.315V133.694H144.023V119.24H139.402V133.694H109.108V119.24H104.487V133.694H57.7624V119.24H53.1413V133.694H36.9842V138.315H53.1413V156.286H36.9842V160.907H53.1413V180.162H36.9842V184.783H78.0439V194.503H82.665V184.783H104.487V194.503H109.108V184.783H161.039V180.162H109.108V160.907H161.039V156.286H144.023V138.315H161.039ZM104.487 138.315V143.963H57.7624V138.315H104.487ZM57.7624 148.584H104.487V156.286H57.7624V148.584ZM57.7624 180.162V160.907H78.0439V180.162H57.7624ZM104.487 180.162H82.665V160.907H104.487V180.162ZM139.402 156.286H109.108V138.315H139.402V156.286Z" fill="#E6E6E6"/>
<path d="M106.797 165.086C110.058 165.086 112.702 162.442 112.702 159.181C112.702 155.92 110.058 153.276 106.797 153.276C103.536 153.276 100.893 155.92 100.893 159.181C100.893 162.442 103.536 165.086 106.797 165.086Z" fill="#ABABAB"/>
<path d="M266.052 206H0V205.362H266.168L266.052 206Z" fill="#4CAF5A"/>
<path d="M107.505 124.104C127.622 124.104 143.929 107.796 143.929 87.6796C143.929 67.563 127.622 51.2553 107.505 51.2553C87.3885 51.2553 71.0808 67.563 71.0808 87.6796C71.0808 107.796 87.3885 124.104 107.505 124.104Z" fill="#ABABAB"/>
<path d="M107.861 146.891L96.3539 127.234L84.8465 107.576L107.624 107.439L130.402 107.302L119.132 127.097L107.861 146.891Z" fill="#ABABAB"/>
<path d="M107.798 100.519C115.015 100.519 120.866 94.668 120.866 87.4505C120.866 80.2329 115.015 74.382 107.798 74.382C100.58 74.382 94.7291 80.2329 94.7291 87.4505C94.7291 94.668 100.58 100.519 107.798 100.519Z" fill="white"/>
<path d="M106.663 0.187161C106.663 0.187161 98.8686 -2.00835 96.5633 8.63985C94.258 19.288 95.7222 17.9464 95.7222 17.9464L113.122 15.9156C113.122 15.9156 118.354 3.42552 106.663 0.187161Z" fill="#2F2E41"/>
<path d="M95.3278 46.9011C95.3278 46.9011 83.5692 47.4454 85.6055 52.061C85.7495 52.3873 85.8835 52.693 86.0076 52.9781C87.4631 56.3212 89.1385 59.5642 91.0228 62.6858L98.2498 74.6601L100.88 73.1991L93.4791 53.9616L100.131 53.4185L95.3278 46.9011Z" fill="#FFB6B6"/>
<path d="M126.331 51.7895L130.132 60.0704C130.132 60.0704 132.983 62.9212 136.105 74.3244C139.228 85.7276 139.906 85.3203 139.906 85.3203L136.82 86.3482L124.159 63.3285L117.914 55.4548L119.815 51.2465L126.331 51.7895Z" fill="#FFB6B6"/>
<path d="M121.716 42.2868L127.178 52.4529C127.178 52.4529 139.561 76.7864 138.281 76.7056C136.843 76.6147 132.801 78.2917 131.561 79.9198C130.962 80.7056 122.21 61.5111 119.136 57.2196L112.484 52.061C112.484 52.061 93.5978 55.2398 93.5746 54.2061C93.5633 53.6998 99.8276 65.8481 98.542 65.3098C97.0775 64.6965 93.6323 67.6806 92.1136 67.063C91.487 66.8081 87.0593 56.0729 85.2669 51.6739C85.0421 51.1247 85.0304 50.5114 85.2341 49.9541C85.4379 49.3968 85.8424 48.9357 86.3684 48.6611C87.7154 47.9606 106.431 43.6869 106.431 43.6869L106.104 42.0153L107.462 39.3003L121.716 42.2868Z" fill="#2F2E41"/>
<path d="M110.515 12.3186C110.984 9.43239 109.024 6.71295 106.137 6.24459C103.251 5.77622 100.532 7.73629 100.063 10.6225C99.595 13.5088 101.555 16.2282 104.441 16.6966C107.328 17.1649 110.047 15.2049 110.515 12.3186Z" fill="#FFB6B6"/>
<path d="M122.21 43.1025C122.503 43.9795 120.609 44.4833 117.97 43.9905C115.687 43.5643 113.188 43.0579 111.217 42.6479C109.106 42.2081 107.597 41.8796 107.597 41.8796C107.597 41.8796 107.054 45.2734 105.29 44.8661C103.769 44.5159 99.2255 28.6451 97.997 24.2589C97.9072 23.9387 97.9245 23.5978 98.0463 23.2883C98.1681 22.9788 98.3877 22.7176 98.6717 22.5444L104.912 18.7338C104.912 18.7338 109.213 17.2568 110.781 17.2147C112.349 17.1726 115.064 16.7654 115.064 16.7654C115.064 16.7654 118.186 17.0369 118.729 19.3447C119.272 21.6525 121.538 35.3356 121.58 38.6215C121.626 42.2259 121.334 40.4727 122.21 43.1025Z" fill="#4CAF5A"/>
<path d="M107.269 4.67017C107.269 4.67017 105.073 10.4883 99.6944 12.9033L98.8162 7.74387L107.269 4.67017Z" fill="#2F2E41"/>
<path d="M110.448 10.8602C110.86 10.8602 111.195 10.222 111.195 9.4348C111.195 8.64757 110.86 8.0094 110.448 8.0094C110.036 8.0094 109.701 8.64757 109.701 9.4348C109.701 10.222 110.036 10.8602 110.448 10.8602Z" fill="#FFB6B6"/>
<path d="M103.068 76.0177L92.573 80.8426L92.5119 80.7099C92.0139 79.6265 91.9666 78.3896 92.3804 77.2714C92.7943 76.1532 93.6353 75.2451 94.7187 74.7469L94.7189 74.7468L101.129 71.7999L103.068 76.0177Z" fill="#2F2E41"/>
<path d="M135.256 85.6571L141.693 82.7712L141.694 82.7711C142.782 82.2835 144.019 82.248 145.133 82.6725C146.247 83.097 147.147 83.9467 147.635 85.0348L147.695 85.1681L137.155 89.893L135.256 85.6571Z" fill="#2F2E41"/>
<path opacity="0.2" d="M117.827 30.5378L116.598 44.0553L118.783 44.1585L117.827 30.5378Z" fill="black"/>
<path d="M109.26 55.7904C109.521 55.4997 109.714 55.1554 109.827 54.7819C109.94 54.4083 109.97 54.0145 109.914 53.6283C109.858 53.242 109.719 52.8726 109.505 52.5462C109.291 52.2198 109.008 51.9442 108.676 51.7389L103.954 27.8878L98.5323 29.9622L104.878 52.7548C104.571 53.3352 104.486 54.0084 104.641 54.6469C104.797 55.2853 105.181 55.8446 105.721 56.2188C106.261 56.593 106.92 56.7561 107.572 56.6771C108.224 56.5981 108.825 56.2826 109.26 55.7904Z" fill="#FFB6B6"/>
<path d="M105.149 31.9076L99.1953 32.9562C99.0259 32.9861 98.8521 32.979 98.6856 32.9356C98.5192 32.8922 98.364 32.8135 98.2308 32.7047C98.0975 32.5959 97.9893 32.4597 97.9134 32.3053C97.8376 32.151 97.7959 31.9821 97.7912 31.8101L97.6268 25.7853C97.479 24.9177 97.6813 24.0269 98.1893 23.3082C98.6973 22.5895 99.4696 22.1015 100.337 21.9514C101.204 21.8013 102.095 22.0012 102.815 22.5073C103.535 23.0134 104.025 23.7844 104.178 24.6513L106.077 30.3507C106.131 30.5139 106.15 30.6869 106.131 30.8579C106.113 31.0289 106.058 31.1939 105.969 31.3417C105.881 31.4894 105.763 31.6164 105.621 31.7141C105.479 31.8118 105.318 31.8778 105.149 31.9076H105.149Z" fill="#4CAF5A"/>
<path d="M113.825 55.3707C114.165 55.1789 114.459 54.9149 114.685 54.5973C114.912 54.2796 115.066 53.9162 115.138 53.5324C115.209 53.1487 115.195 52.754 115.097 52.3763C114.999 51.9985 114.819 51.6468 114.571 51.3459L117.747 27.2402L111.946 27.4664L110.648 51.0904C110.17 51.5414 109.875 52.1521 109.817 52.8066C109.759 53.4611 109.944 54.1141 110.335 54.6417C110.727 55.1693 111.298 55.5349 111.942 55.6693C112.585 55.8037 113.255 55.6974 113.825 55.3707Z" fill="#FFB6B6"/>
<path d="M117.589 31.4308L111.614 30.5149C111.444 30.4889 111.281 30.4265 111.137 30.332C110.994 30.2375 110.872 30.1132 110.781 29.9674C110.689 29.8217 110.63 29.6579 110.608 29.4874C110.586 29.3168 110.6 29.1435 110.651 28.9791L112.427 23.2198C112.566 22.3506 113.043 21.5717 113.754 21.0538C114.466 20.536 115.354 20.3215 116.224 20.4574C117.093 20.5932 117.873 21.0684 118.393 21.7787C118.913 22.4889 119.13 23.3763 118.996 24.2462L118.967 30.2537C118.967 30.4257 118.929 30.5955 118.856 30.7515C118.784 30.9076 118.679 31.0462 118.548 31.1579C118.417 31.2696 118.264 31.3518 118.098 31.3989C117.933 31.446 117.759 31.4569 117.589 31.4308Z" fill="#4CAF5A"/>
</g>
<defs>
<clipPath id="clip0">
<rect width="266.168" height="206" fill="white"/>
</clipPath>
</defs>
</svg>
