<svg width="116" height="104" viewBox="0 0 116 104" fill="none" xmlns="http://www.w3.org/2000/svg">
<g clip-path="url(#clip0)">
<path d="M59.3456 0.227318L55.5751 1.19965L9.12211 13.1789L5.35164 14.1513C3.52149 14.6254 1.95416 15.8062 0.993507 17.4345C0.0328482 19.0628 -0.242686 21.0057 0.227353 22.8369L16.577 86.237C17.0511 88.0671 18.2319 89.6344 19.8602 90.5951C21.4885 91.5558 23.4314 91.8313 25.2626 91.3613L25.2723 91.3587L79.2468 77.4398L79.2565 77.4373C81.0866 76.9632 82.654 75.7824 83.6146 74.1541C84.5753 72.5258 84.8508 70.5829 84.3808 68.7517L68.0312 5.35163C67.557 3.52149 66.3763 1.95415 64.748 0.993488C63.1197 0.0328231 61.1768 -0.242717 59.3456 0.227318Z" fill="#F2F2F2"/>
<path d="M59.8577 2.2145L55.3918 3.36616L10.3295 14.9868L5.86366 16.1385C4.56036 16.4761 3.44423 17.317 2.76012 18.4765C2.076 19.6361 1.87979 21.0196 2.21451 22.3237L18.5641 85.7238C18.9018 87.0271 19.7426 88.1432 20.9022 88.8273C22.0617 89.5114 23.4453 89.7076 24.7493 89.3729L24.7591 89.3704L78.7335 75.4514L78.7433 75.4489C80.0466 75.1113 81.1627 74.2704 81.8468 73.1109C82.5309 71.9513 82.7271 70.5678 82.3924 69.2637L66.0428 5.86365C65.7052 4.56037 64.8643 3.44424 63.7048 2.76013C62.5453 2.07602 61.1617 1.87979 59.8577 2.2145Z" fill="white"/>
<path d="M56.4855 22.7451L29.1811 29.7864C28.8762 29.865 28.5525 29.8193 28.2812 29.6593C28.01 29.4992 27.8134 29.238 27.7348 28.933C27.6561 28.6281 27.7018 28.3044 27.8619 28.0331C28.0219 27.7619 28.2831 27.5653 28.5881 27.4866L55.8925 20.4454C56.1973 20.3671 56.5208 20.413 56.7918 20.573C57.0628 20.7331 57.2592 20.9942 57.3378 21.299C57.4164 21.6038 57.3708 21.9273 57.211 22.1985C57.0512 22.4696 56.7902 22.6662 56.4855 22.7451Z" fill="#F2F2F2"/>
<path d="M62.2295 25.4027L30.1819 33.6671C29.877 33.7458 29.5533 33.7001 29.282 33.54C29.0108 33.38 28.8142 33.1188 28.7356 32.8138C28.6569 32.5088 28.7026 32.1851 28.8627 31.9139C29.0227 31.6426 29.2839 31.4461 29.5889 31.3674L61.6364 23.103C61.9414 23.0243 62.2651 23.0701 62.5364 23.2301C62.8076 23.3901 63.0042 23.6514 63.0828 23.9563C63.1615 24.2613 63.1157 24.585 62.9557 24.8562C62.7957 25.1275 62.5345 25.3241 62.2295 25.4027Z" fill="#F2F2F2"/>
<path d="M60.9705 40.1367L33.6661 47.178C33.5151 47.2169 33.3579 47.2258 33.2035 47.204C33.0491 47.1821 32.9005 47.1301 32.7662 47.0509C32.6319 46.9717 32.5145 46.8667 32.4208 46.7421C32.327 46.6175 32.2587 46.4757 32.2197 46.3247C32.1808 46.1737 32.172 46.0165 32.1938 45.8621C32.2156 45.7077 32.2676 45.5591 32.3469 45.4247C32.4261 45.2904 32.531 45.173 32.6556 45.0793C32.7802 44.9855 32.9221 44.9172 33.0731 44.8783L60.3775 37.837C60.5285 37.7981 60.6857 37.7893 60.8401 37.8111C60.9945 37.8329 61.1431 37.8849 61.2774 37.9641C61.4117 38.0434 61.5291 38.1483 61.6228 38.2729C61.7166 38.3975 61.7849 38.5394 61.8239 38.6904C61.8628 38.8414 61.8716 38.9986 61.8498 39.153C61.828 39.3074 61.776 39.456 61.6967 39.5903C61.6175 39.7246 61.5126 39.842 61.388 39.9357C61.2634 40.0295 61.1215 40.0978 60.9705 40.1367Z" fill="#F2F2F2"/>
<path d="M66.7144 42.7944L34.6669 51.0588C34.5159 51.0977 34.3587 51.1065 34.2043 51.0847C34.0498 51.0629 33.9013 51.0109 33.7669 50.9317C33.6326 50.8524 33.5152 50.7475 33.4215 50.6229C33.3277 50.4983 33.2594 50.3565 33.2205 50.2054C33.1815 50.0544 33.1727 49.8972 33.1945 49.7428C33.2163 49.5884 33.2684 49.4398 33.3476 49.3055C33.4268 49.1712 33.5317 49.0538 33.6563 48.9601C33.781 48.8663 33.9228 48.798 34.0738 48.7591L66.1214 40.4946C66.4263 40.416 66.75 40.4617 67.0213 40.6217C67.2925 40.7818 67.4891 41.043 67.5677 41.348C67.6464 41.6529 67.6007 41.9766 67.4406 42.2479C67.2806 42.5191 67.0194 42.7157 66.7144 42.7944Z" fill="#F2F2F2"/>
<path d="M65.4554 57.5284L38.1511 64.5696C37.8462 64.648 37.5227 64.6022 37.2516 64.4421C36.9805 64.2821 36.7841 64.0209 36.7055 63.7161C36.6269 63.4113 36.6725 63.0877 36.8324 62.8165C36.9922 62.5453 37.2532 62.3487 37.558 62.2699L64.8624 55.2287C65.1674 55.15 65.4911 55.1957 65.7623 55.3558C66.0336 55.5158 66.2301 55.777 66.3088 56.082C66.3874 56.387 66.3417 56.7107 66.1817 56.9819C66.0216 57.2532 65.7604 57.4497 65.4554 57.5284Z" fill="#F2F2F2"/>
<path d="M71.1994 60.186L39.1518 68.4504C39.0008 68.4895 38.8435 68.4985 38.689 68.4767C38.5345 68.455 38.3858 68.4031 38.2513 68.3238C38.1169 68.2446 37.9994 68.1397 37.9056 68.015C37.8117 67.8904 37.7434 67.7484 37.7044 67.5973C37.6655 67.4462 37.6567 67.289 37.6785 67.1345C37.7004 66.98 37.7525 66.8313 37.8318 66.697C37.9112 66.5626 38.0162 66.4452 38.1409 66.3515C38.2657 66.2577 38.4077 66.1895 38.5588 66.1507L70.6063 57.8863C70.9113 57.8076 71.235 57.8534 71.5063 58.0134C71.7775 58.1734 71.9741 58.4346 72.0527 58.7396C72.1314 59.0446 72.0856 59.3683 71.9256 59.6395C71.7656 59.9108 71.5044 60.1073 71.1994 60.186Z" fill="#F2F2F2"/>
<path d="M24.5199 37.0061L14.8571 39.498C14.7109 39.5355 14.5558 39.5135 14.4258 39.4368C14.2957 39.3601 14.2014 39.2349 14.1636 39.0888L11.9455 30.4876C11.908 30.3414 11.93 30.1862 12.0067 30.0562C12.0834 29.9262 12.2086 29.8319 12.3547 29.7941L22.0174 27.3022C22.1637 27.2647 22.3188 27.2867 22.4488 27.3634C22.5788 27.4401 22.6731 27.5653 22.711 27.7114L24.9291 36.3126C24.9666 36.4588 24.9446 36.614 24.8679 36.744C24.7912 36.874 24.666 36.9683 24.5199 37.0061Z" fill="#E6E6E6"/>
<path d="M29.0049 54.3978L19.3421 56.8896C19.1959 56.9271 19.0408 56.9051 18.9107 56.8284C18.7807 56.7517 18.6864 56.6266 18.6486 56.4804L16.4305 47.8792C16.393 47.733 16.415 47.5779 16.4917 47.4479C16.5684 47.3178 16.6935 47.2236 16.8397 47.1857L26.5024 44.6939C26.6487 44.6563 26.8038 44.6783 26.9338 44.755C27.0638 44.8317 27.1581 44.9569 27.196 45.103L29.414 53.7042C29.4516 53.8505 29.4296 54.0056 29.3529 54.1356C29.2762 54.2656 29.151 54.3599 29.0049 54.3978Z" fill="#E6E6E6"/>
<path d="M33.4898 71.7894L23.827 74.2812C23.6808 74.3188 23.5257 74.2968 23.3957 74.2201C23.2656 74.1433 23.1714 74.0182 23.1335 73.8721L20.9154 65.2708C20.8779 65.1246 20.8999 64.9695 20.9766 64.8395C21.0533 64.7094 21.1785 64.6152 21.3246 64.5773L30.9874 62.0855C31.1336 62.0479 31.2887 62.0699 31.4187 62.1466C31.5488 62.2234 31.643 62.3485 31.6809 62.4946L33.899 71.0958C33.9365 71.2421 33.9145 71.3972 33.8378 71.5272C33.7611 71.6573 33.6359 71.7515 33.4898 71.7894Z" fill="#E6E6E6"/>
<path d="M97.0031 16.2979H41.2427C39.3521 16.3 37.5396 17.052 36.2027 18.3888C34.8659 19.7256 34.1139 21.5381 34.1118 23.4287V88.903C34.1139 90.7936 34.8659 92.6061 36.2027 93.9429C37.5396 95.2797 39.3521 96.0317 41.2427 96.0338H97.0031C98.8936 96.0317 100.706 95.2797 102.043 93.9429C103.38 92.6061 104.132 90.7936 104.134 88.903V23.4287C104.132 21.5381 103.38 19.7256 102.043 18.3888C100.706 17.052 98.8936 16.3 97.0031 16.2979Z" fill="#E6E6E6"/>
<path d="M97.0031 18.3507H41.2427C39.8963 18.3522 38.6056 18.8877 37.6536 19.8397C36.7016 20.7917 36.1661 22.0824 36.1646 23.4287V88.903C36.1661 90.2493 36.7016 91.54 37.6536 92.492C38.6056 93.444 39.8963 93.9795 41.2427 93.981H97.0031C98.3494 93.9795 99.6402 93.444 100.592 92.492C101.544 91.54 102.08 90.2493 102.081 88.903V23.4287C102.08 22.0824 101.544 20.7917 100.592 19.8397C99.6402 18.8877 98.3494 18.3522 97.0031 18.3507Z" fill="white"/>
<path d="M102.861 104C110.05 104 115.878 98.172 115.878 90.9829C115.878 83.7937 110.05 77.9658 102.861 77.9658C95.672 77.9658 89.8441 83.7937 89.8441 90.9829C89.8441 98.172 95.672 104 102.861 104Z" fill="#ABABAB"/>
<path d="M109.087 89.285H104.559V84.7573C104.559 84.307 104.38 83.8752 104.062 83.5567C103.743 83.2383 103.311 83.0594 102.861 83.0594C102.411 83.0594 101.979 83.2383 101.661 83.5567C101.342 83.8752 101.163 84.307 101.163 84.7573V89.285H96.6356C96.1853 89.285 95.7534 89.4639 95.435 89.7823C95.1166 90.1007 94.9377 90.5326 94.9377 90.9829C94.9377 91.4332 95.1166 91.8651 95.435 92.1835C95.7534 92.5019 96.1853 92.6808 96.6356 92.6808H101.163V97.2085C101.163 97.6588 101.342 98.0906 101.661 98.409C101.979 98.7275 102.411 98.9063 102.861 98.9063C103.311 98.9063 103.743 98.7275 104.062 98.409C104.38 98.0906 104.559 97.6588 104.559 97.2085V92.6808H109.087C109.537 92.6808 109.969 92.5019 110.287 92.1835C110.606 91.8651 110.785 91.4332 110.785 90.9829C110.785 90.5326 110.606 90.1007 110.287 89.7823C109.969 89.4639 109.537 89.285 109.087 89.285Z" fill="white"/>
<path d="M88.6111 54.3286H60.4135C60.2574 54.3288 60.1029 54.2982 59.9586 54.2386C59.8144 54.179 59.6834 54.0916 59.5729 53.9813C59.4625 53.871 59.3749 53.74 59.3152 53.5959C59.2554 53.4517 59.2247 53.2972 59.2247 53.1411C59.2247 52.9851 59.2554 52.8306 59.3152 52.6864C59.3749 52.5422 59.4625 52.4113 59.5729 52.301C59.6834 52.1907 59.8144 52.1033 59.9586 52.0437C60.1029 51.9841 60.2574 51.9535 60.4135 51.9537H88.6111C88.9258 51.954 89.2275 52.0793 89.45 52.3019C89.6724 52.5246 89.7973 52.8264 89.7973 53.1411C89.7973 53.4558 89.6724 53.7577 89.45 53.9804C89.2275 54.203 88.9258 54.3283 88.6111 54.3286Z" fill="#E6E6E6"/>
<path d="M93.5095 58.3364H60.4135C60.2574 58.3365 60.1029 58.3059 59.9586 58.2463C59.8144 58.1867 59.6834 58.0993 59.5729 57.989C59.4625 57.8787 59.3749 57.7478 59.3152 57.6036C59.2554 57.4595 59.2247 57.3049 59.2247 57.1489C59.2247 56.9928 59.2554 56.8383 59.3152 56.6941C59.3749 56.55 59.4625 56.419 59.5729 56.3087C59.6834 56.1985 59.8144 56.111 59.9586 56.0514C60.1029 55.9918 60.2574 55.9612 60.4135 55.9614H93.5095C93.8244 55.9614 94.1265 56.0865 94.3492 56.3092C94.5718 56.5319 94.697 56.8339 94.697 57.1489C94.697 57.4638 94.5718 57.7659 94.3492 57.9886C94.1265 58.2112 93.8244 58.3364 93.5095 58.3364Z" fill="#E6E6E6"/>
<path d="M88.6111 72.2893H60.4135C60.2574 72.2894 60.1029 72.2588 59.9586 72.1992C59.8144 72.1396 59.6834 72.0522 59.5729 71.9419C59.4625 71.8316 59.3749 71.7007 59.3152 71.5565C59.2554 71.4123 59.2247 71.2578 59.2247 71.1018C59.2247 70.9457 59.2554 70.7912 59.3152 70.647C59.3749 70.5029 59.4625 70.3719 59.5729 70.2616C59.6834 70.1513 59.8144 70.0639 59.9586 70.0043C60.1029 69.9447 60.2574 69.9141 60.4135 69.9143H88.6111C88.9261 69.9143 89.2281 70.0394 89.4508 70.2621C89.6735 70.4848 89.7986 70.7868 89.7986 71.1018C89.7986 71.4167 89.6735 71.7188 89.4508 71.9414C89.2281 72.1641 88.9261 72.2893 88.6111 72.2893Z" fill="#E6E6E6"/>
<path d="M93.5095 76.297H60.4135C60.2574 76.2972 60.1029 76.2666 59.9586 76.207C59.8144 76.1474 59.6834 76.06 59.5729 75.9497C59.4625 75.8394 59.3749 75.7084 59.3152 75.5643C59.2554 75.4201 59.2247 75.2656 59.2247 75.1095C59.2247 74.9535 59.2554 74.7989 59.3152 74.6548C59.3749 74.5106 59.4625 74.3797 59.5729 74.2694C59.6834 74.1591 59.8144 74.0716 59.9586 74.012C60.1029 73.9524 60.2574 73.9219 60.4135 73.922H93.5095C93.6655 73.9219 93.8201 73.9524 93.9643 74.012C94.1085 74.0716 94.2396 74.1591 94.35 74.2694C94.4604 74.3797 94.548 74.5106 94.6078 74.6548C94.6675 74.7989 94.6983 74.9535 94.6983 75.1095C94.6983 75.2656 94.6675 75.4201 94.6078 75.5643C94.548 75.7084 94.4604 75.8394 94.35 75.9497C94.2396 76.06 94.1085 76.1474 93.9643 76.207C93.8201 76.2666 93.6655 76.2972 93.5095 76.297Z" fill="#E6E6E6"/>
<path d="M54.097 60.1557H44.1181C43.9671 60.1555 43.8224 60.0955 43.7157 59.9888C43.6089 59.882 43.5489 59.7373 43.5487 59.5863V50.7037C43.5489 50.5528 43.6089 50.408 43.7157 50.3013C43.8224 50.1945 43.9671 50.1345 44.1181 50.1343H54.097C54.2479 50.1345 54.3927 50.1945 54.4994 50.3013C54.6062 50.408 54.6662 50.5528 54.6664 50.7037V59.5863C54.6662 59.7373 54.6062 59.882 54.4994 59.9888C54.3927 60.0955 54.2479 60.1555 54.097 60.1557Z" fill="#E6E6E6"/>
<path d="M54.097 78.1163H44.1181C43.9671 78.1162 43.8224 78.0561 43.7157 77.9494C43.6089 77.8426 43.5489 77.6979 43.5487 77.5469V68.6643C43.5489 68.5134 43.6089 68.3686 43.7157 68.2619C43.8224 68.1552 43.9671 68.0951 44.1181 68.0949H54.097C54.2479 68.0951 54.3927 68.1552 54.4994 68.2619C54.6062 68.3686 54.6662 68.5134 54.6664 68.6643V77.5469C54.6662 77.6979 54.6062 77.8426 54.4994 77.9494C54.3927 78.0561 54.2479 78.1162 54.097 78.1163Z" fill="#E6E6E6"/>
<path d="M88.6424 34.3349H67.8534C67.5385 34.3349 67.2365 34.2098 67.0138 33.9871C66.7911 33.7644 66.666 33.4624 66.666 33.1474C66.666 32.8325 66.7911 32.5304 67.0138 32.3077C67.2365 32.0851 67.5385 31.9599 67.8534 31.9599H88.6424C88.9574 31.9599 89.2594 32.0851 89.4821 32.3077C89.7048 32.5304 89.8299 32.8325 89.8299 33.1474C89.8299 33.4624 89.7048 33.7644 89.4821 33.9871C89.2594 34.2098 88.9574 34.3349 88.6424 34.3349Z" fill="#CCCCCC"/>
<path d="M93.5408 38.3426H67.8534C67.6975 38.3426 67.5431 38.3119 67.399 38.2523C67.2549 38.1926 67.124 38.1051 67.0138 37.9948C66.9035 37.8846 66.816 37.7537 66.7563 37.6096C66.6967 37.4655 66.666 37.3111 66.666 37.1552C66.666 36.9992 66.6967 36.8448 66.7563 36.7007C66.816 36.5567 66.9035 36.4258 67.0138 36.3155C67.124 36.2052 67.2549 36.1178 67.399 36.0581C67.5431 35.9984 67.6975 35.9677 67.8534 35.9677H93.5408C93.8557 35.9677 94.1578 36.0928 94.3804 36.3155C94.6031 36.5382 94.7283 36.8402 94.7283 37.1552C94.7283 37.4701 94.6031 37.7722 94.3804 37.9948C94.1578 38.2175 93.8557 38.3426 93.5408 38.3426Z" fill="#CCCCCC"/>
<path d="M63.2525 43.1995H44.0869C43.9359 43.1994 43.7912 43.1393 43.6844 43.0326C43.5777 42.9258 43.5176 42.7811 43.5175 42.6301V27.6724C43.5176 27.5215 43.5777 27.3767 43.6844 27.27C43.7912 27.1632 43.9359 27.1032 44.0869 27.103H63.2525C63.4035 27.1032 63.5482 27.1632 63.6549 27.27C63.7617 27.3767 63.8217 27.5215 63.8219 27.6724V42.6301C63.8217 42.7811 63.7617 42.9258 63.6549 43.0326C63.5482 43.1393 63.4035 43.1994 63.2525 43.1995Z" fill="#ABABAB"/>
</g>
<defs>
<clipPath id="clip0">
<rect width="115.878" height="104" fill="white"/>
</clipPath>
</defs>
</svg>
